HIERARCHY
ROOT Hips
{
	OFFSET 0.000000 83.214638 0.000000
	CHANNELS 6 Xposition Yposition Zposition Xrotation Yrotation Zrotation
	JOINT Pelvis
	{
		OFFSET 0.000000 0.000000 0.000000
		CHANNELS 3 Xrotation Yrotation Zrotation
		JOINT LeftUpLeg
		{
			OFFSET 8.479700 -4.795502 -0.379100
			CHANNELS 3 Xrotation Yrotation Zrotation
			JOINT LeftLeg
			{
				OFFSET 0.024144 -32.555107 0.112900
				CHANNELS 3 Xrotation Yrotation Zrotation
				JOINT LeftFoot
				{
					OFFSET -0.024144 -32.638630 -3.012600
					CHANNELS 3 Xrotation Yrotation Zrotation
					JOINT LeftToeBase
					{
						OFFSET 0.970200 -13.225400 11.864200
						CHANNELS 3 Xrotation Yrotation Zrotation
						End Site
						{
							OFFSET 0.000000 12.319262 0.000000
						}
					}
					JOINT LFootTongue
					{
						OFFSET 1.142400 -1.059800 6.665200
						CHANNELS 3 Xrotation Yrotation Zrotation
						End Site
						{
							OFFSET 0.000000 12.319262 0.000000
						}
					}
				}
				JOINT LeftPantLeg
				{
					OFFSET 0.918482 -16.533964 -2.284700
					CHANNELS 3 Xrotation Yrotation Zrotation
					End Site
					{
						OFFSET 0.350399 24.744368 0.000000
					}
				}
			}
		}
		JOINT RightUpLeg
		{
			OFFSET -8.479700 -4.795502 -0.379100
			CHANNELS 3 Xrotation Yrotation Zrotation
			JOINT RightLeg
			{
				OFFSET -0.023144 -32.555092 0.112900
				CHANNELS 3 Xrotation Yrotation Zrotation
				JOINT RightFoot
				{
					OFFSET 0.023144 -32.638641 -3.012700
					CHANNELS 3 Xrotation Yrotation Zrotation
					JOINT RightToeBase
					{
						OFFSET -0.970200 -13.225400 11.864200
						CHANNELS 3 Xrotation Yrotation Zrotation
						End Site
						{
							OFFSET 0.000000 12.319244 0.000000
						}
					}
					JOINT RFootTongue
					{
						OFFSET -1.142200 -1.059800 6.665200
						CHANNELS 3 Xrotation Yrotation Zrotation
						End Site
						{
							OFFSET 0.000000 12.319243 0.000000
						}
					}
				}
				JOINT RightPantLeg
				{
					OFFSET -0.919482 -16.533978 -2.284800
					CHANNELS 3 Xrotation Yrotation Zrotation
					End Site
					{
						OFFSET -0.350400 24.744419 0.000000
					}
				}
			}
		}
	}
	JOINT Spine
	{
		OFFSET 0.000000 7.722000 1.166200
		CHANNELS 3 Xrotation Yrotation Zrotation
		JOINT Spine1
		{
			OFFSET 0.000000 12.024101 0.248800
			CHANNELS 3 Xrotation Yrotation Zrotation
			JOINT Spine2
			{
				OFFSET 0.000000 11.502998 -0.491200
				CHANNELS 3 Xrotation Yrotation Zrotation
				JOINT Neck
				{
					OFFSET 0.000000 18.430702 -3.123100
					CHANNELS 3 Xrotation Yrotation Zrotation
					JOINT Head
					{
						OFFSET 0.000000 9.051102 1.034000
						CHANNELS 3 Xrotation Yrotation Zrotation
						JOINT HairB
						{
							OFFSET 0.208400 24.786102 24.822300
							CHANNELS 3 Xrotation Yrotation Zrotation
							End Site
							{
								OFFSET 0.000000 32.263779 0.000000
							}
						}
						JOINT HairA
						{
							OFFSET -7.081100 24.428299 23.196600
							CHANNELS 3 Xrotation Yrotation Zrotation
							End Site
							{
								OFFSET 0.000000 32.263779 0.000000
							}
						}
						JOINT Hat
						{
							OFFSET 16.728800 15.048294 -15.439601
							CHANNELS 3 Xrotation Yrotation Zrotation
							End Site
							{
								OFFSET 0.000000 32.263779 0.000000
							}
						}
					}
				}
				JOINT LeftShoulder
				{
					OFFSET 6.197800 13.665199 -4.064700
					CHANNELS 3 Xrotation Yrotation Zrotation
					JOINT LeftArm
					{
						OFFSET 7.778100 -0.187103 -1.709300
						CHANNELS 3 Xrotation Yrotation Zrotation
						JOINT LeftForeArm
						{
							OFFSET 22.049376 0.000000 0.000000
							CHANNELS 3 Xrotation Yrotation Zrotation
							JOINT LeftHand
							{
								OFFSET 23.009392 0.000000 0.000000
								CHANNELS 3 Xrotation Yrotation Zrotation
								JOINT LeftHandThumb1
								{
									OFFSET 3.507191 -2.063065 3.133727
									CHANNELS 3 Xrotation Yrotation Zrotation
									JOINT LeftHandThumb2
									{
										OFFSET 3.101337 -1.790558 1.790558
										CHANNELS 3 Xrotation Yrotation Zrotation
										JOINT LeftHandThumb3
										{
											OFFSET 3.058640 -1.765907 1.765906
											CHANNELS 3 Xrotation Yrotation Zrotation
											End Site
											{
												OFFSET -0.415260 3.926476 -0.049563
											}
										}
									}
								}
								JOINT LeftHandIndex1
								{
									OFFSET 11.334419 -0.901459 3.706815
									CHANNELS 3 Xrotation Yrotation Zrotation
									JOINT LeftHandIndex2
									{
										OFFSET 3.283112 0.000000 0.000000
										CHANNELS 3 Xrotation Yrotation Zrotation
										JOINT LeftHandIndex3
										{
											OFFSET 3.323853 0.000000 0.000000
											CHANNELS 3 Xrotation Yrotation Zrotation
											End Site
											{
												OFFSET -1.135597 3.097809 0.402452
											}
										}
									}
								}
								JOINT LeftHandMiddle1
								{
									OFFSET 11.335861 0.000000 0.000000
									CHANNELS 3 Xrotation Yrotation Zrotation
									JOINT LeftHandMiddle2
									{
										OFFSET 3.410492 0.000000 0.000000
										CHANNELS 3 Xrotation Yrotation Zrotation
										JOINT LeftHandMiddle3
										{
											OFFSET 3.312172 0.000000 0.000000
											CHANNELS 3 Xrotation Yrotation Zrotation
											End Site
											{
												OFFSET -1.150200 3.080154 0.400270
											}
										}
									}
								}
								JOINT LeftHandRing1
								{
									OFFSET 11.514786 -0.013176 -3.003090
									CHANNELS 3 Xrotation Yrotation Zrotation
									JOINT LeftHandRing2
									{
										OFFSET 3.053307 0.000000 0.000000
										CHANNELS 3 Xrotation Yrotation Zrotation
										JOINT LeftHandRing3
										{
											OFFSET 3.295807 0.000000 0.000000
											CHANNELS 3 Xrotation Yrotation Zrotation
											End Site
											{
												OFFSET -1.281006 3.013344 0.375733
											}
										}
									}
								}
								JOINT LeftHandPinky1
								{
									OFFSET 10.518692 -0.960396 -5.730441
									CHANNELS 3 Xrotation Yrotation Zrotation
									JOINT LeftHandPinky2
									{
										OFFSET 2.861649 0.000000 0.000000
										CHANNELS 3 Xrotation Yrotation Zrotation
										JOINT LeftHandPinky3
										{
											OFFSET 2.863380 0.000000 0.000000
											CHANNELS 3 Xrotation Yrotation Zrotation
											End Site
											{
												OFFSET -0.843597 2.711159 0.369971
											}
										}
									}
								}
							}
							JOINT LSleeve
							{
								OFFSET 6.676277 -0.344902 -1.011730
								CHANNELS 3 Xrotation Yrotation Zrotation
								End Site
								{
									OFFSET 0.000000 14.885353 0.000000
								}
							}
						}
					}
				}
				JOINT RightShoulder
				{
					OFFSET -6.197800 13.665199 -4.064700
					CHANNELS 3 Xrotation Yrotation Zrotation
					JOINT RightArm
					{
						OFFSET -7.778100 -0.187103 -1.709300
						CHANNELS 3 Xrotation Yrotation Zrotation
						JOINT RightForeArm
						{
							OFFSET -22.049376 0.000000 0.000000
							CHANNELS 3 Xrotation Yrotation Zrotation
							JOINT RightHand
							{
								OFFSET -23.009392 0.000000 0.000000
								CHANNELS 3 Xrotation Yrotation Zrotation
								JOINT RightHandThumb1
								{
									OFFSET -3.507191 -2.063065 3.133727
									CHANNELS 3 Xrotation Yrotation Zrotation
									JOINT RightHandThumb2
									{
										OFFSET -3.101337 -1.790558 1.790558
										CHANNELS 3 Xrotation Yrotation Zrotation
										JOINT RightHandThumb3
										{
											OFFSET -3.058640 -1.765907 1.765906
											CHANNELS 3 Xrotation Yrotation Zrotation
											End Site
											{
												OFFSET 0.415260 3.926476 -0.049563
											}
										}
									}
								}
								JOINT RightHandIndex1
								{
									OFFSET -11.334419 -0.901459 3.706815
									CHANNELS 3 Xrotation Yrotation Zrotation
									JOINT RightHandIndex2
									{
										OFFSET -3.283112 0.000000 0.000000
										CHANNELS 3 Xrotation Yrotation Zrotation
										JOINT RightHandIndex3
										{
											OFFSET -3.323853 0.000000 0.000000
											CHANNELS 3 Xrotation Yrotation Zrotation
											End Site
											{
												OFFSET 1.135597 3.097809 0.402452
											}
										}
									}
								}
								JOINT RightHandMiddle1
								{
									OFFSET -11.335861 0.000000 0.000000
									CHANNELS 3 Xrotation Yrotation Zrotation
									JOINT RightHandMiddle2
									{
										OFFSET -3.410492 0.000000 0.000000
										CHANNELS 3 Xrotation Yrotation Zrotation
										JOINT RightHandMiddle3
										{
											OFFSET -3.312172 0.000000 0.000000
											CHANNELS 3 Xrotation Yrotation Zrotation
											End Site
											{
												OFFSET 1.150200 3.080154 0.400270
											}
										}
									}
								}
								JOINT RightHandRing1
								{
									OFFSET -11.514786 -0.013176 -3.003090
									CHANNELS 3 Xrotation Yrotation Zrotation
									JOINT RightHandRing2
									{
										OFFSET -3.053307 0.000000 0.000000
										CHANNELS 3 Xrotation Yrotation Zrotation
										JOINT RightHandRing3
										{
											OFFSET -3.295807 0.000000 0.000000
											CHANNELS 3 Xrotation Yrotation Zrotation
											End Site
											{
												OFFSET 1.281006 3.013344 0.375733
											}
										}
									}
								}
								JOINT RightHandPinky1
								{
									OFFSET -10.518692 -0.960396 -5.730441
									CHANNELS 3 Xrotation Yrotation Zrotation
									JOINT RightHandPinky2
									{
										OFFSET -2.861649 0.000000 0.000000
										CHANNELS 3 Xrotation Yrotation Zrotation
										JOINT RightHandPinky3
										{
											OFFSET -2.863380 0.000000 0.000000
											CHANNELS 3 Xrotation Yrotation Zrotation
											End Site
											{
												OFFSET 0.843597 2.711159 0.369971
											}
										}
									}
								}
							}
							JOINT RSleeve
							{
								OFFSET -6.676277 -0.344902 -1.011730
								CHANNELS 3 Xrotation Yrotation Zrotation
								End Site
								{
									OFFSET 0.000000 14.885353 0.000000
								}
							}
						}
					}
				}
				JOINT Backpack
				{
					OFFSET 0.000000 -2.471497 36.677502
					CHANNELS 3 Xrotation Yrotation Zrotation
					End Site
					{
						OFFSET 0.000000 20.427315 0.000000
					}
				}
				JOINT Hood
				{
					OFFSET 0.000000 18.754097 -10.431000
					CHANNELS 3 Xrotation Yrotation Zrotation
					JOINT Hood1
					{
						OFFSET 0.000000 -5.011002 -7.685901
						CHANNELS 3 Xrotation Yrotation Zrotation
						End Site
						{
							OFFSET 0.000000 9.175140 0.000000
						}
					}
				}
				JOINT LHoodieString
				{
					OFFSET 5.250500 16.397697 3.089900
					CHANNELS 3 Xrotation Yrotation Zrotation
					JOINT LHoodieString1
					{
						OFFSET 0.257700 -6.364304 3.694600
						CHANNELS 3 Xrotation Yrotation Zrotation
						JOINT LHoodieString2
						{
							OFFSET 0.000000 -9.643799 2.679100
							CHANNELS 3 Xrotation Yrotation Zrotation
							End Site
							{
								OFFSET 0.000000 10.009018 0.000000
							}
						}
					}
				}
				JOINT RHoodieString
				{
					OFFSET -5.250500 16.397697 3.089900
					CHANNELS 3 Xrotation Yrotation Zrotation
					JOINT RHoodieString1
					{
						OFFSET -0.257700 -6.364304 3.694600
						CHANNELS 3 Xrotation Yrotation Zrotation
						JOINT RHoodieString2
						{
							OFFSET 0.000000 -9.643799 2.679100
							CHANNELS 3 Xrotation Yrotation Zrotation
							End Site
							{
								OFFSET 0.000000 10.009018 0.000000
							}
						}
					}
				}
			}
			JOINT LBackpack_Strap
			{
				OFFSET 15.223200 -7.719803 -6.610900
				CHANNELS 3 Xrotation Yrotation Zrotation
				End Site
				{
					OFFSET 0.000000 16.040596 0.000000
				}
			}
			JOINT RBackpack_Strap
			{
				OFFSET -15.223000 -7.719803 -6.610900
				CHANNELS 3 Xrotation Yrotation Zrotation
				End Site
				{
					OFFSET 0.000000 16.040596 0.000000
				}
			}
		}
	}
	JOINT BoyFacialAnim_Joint
	{
		OFFSET 1.000000 -82.208099 -1.550900
		CHANNELS 3 Xrotation Yrotation Zrotation
		End Site
		{
			OFFSET 0.000000 30.012791 0.000000
		}
	}
}
MOTION
Frames: 4
Frame Time: 0.033333
-5.262562 73.989960 96.361313 11.394786 124.320986 2.301454 0.000001 0.000001 -0.000001 -25.627297 -4.248148 -4.872475 61.470726 -8.902317 -2.631870 -12.881265 23.953137 -6.784326 0.000000 -0.000000 0.000000 0.000000 -0.000000 0.000001 0.000002 0.000000 0.000000 -21.161765 -0.436309 -21.567893 60.309600 -3.463988 1.929543 -32.224242 -2.240994 7.575505 0.000000 -0.000002 0.000000 0.000000 -0.000002 0.000000 -0.000002 -0.000000 -0.000000 2.575465 -1.020959 -0.165041 5.159621 -2.119114 0.097568 5.159621 -2.119111 0.097567 19.365400 6.934244 -7.420843 4.795697 -34.493015 14.866458 -0.000001 0.000000 -0.000000 -0.000001 0.000000 -0.000000 -0.000001 0.000000 -0.000000 -8.606164 7.949140 -9.238670 -29.328293 -11.639722 -52.497456 -44.824554 -78.370369 -29.242963 -121.266279 -9.814488 -21.315074 3.592081 4.185668 -5.133825 1.252892 4.302585 1.889371 0.000003 -0.000001 0.000003 7.554898 5.560408 -33.410379 -14.917828 -6.767400 -80.641913 -0.000002 -0.000002 -0.000002 -0.349202 -1.566794 -62.979228 -6.177651 -6.585460 -60.286166 0.000002 -0.000002 0.000002 -5.286439 4.624253 -73.484708 0.757937 -3.521247 -58.282858 0.000001 0.000003 -0.000002 -16.248807 1.424904 -86.150590 2.608795 -7.578002 -55.784716 0.000001 0.000000 -0.000000 -0.000000 0.000002 -0.000005 13.101678 16.677427 -11.470204 -26.902322 68.529405 44.862346 -12.524835 87.179660 7.003101 8.297494 9.495691 -15.730600 15.407445 -4.518729 17.010991 11.550395 4.015408 -20.411428 -0.000001 0.000003 0.000000 1.857051 -0.976110 4.781778 -1.775901 -0.095297 22.317047 -0.000001 -0.000000 0.000003 3.631172 5.779695 48.858805 -9.397607 -0.919669 110.759789 -0.000000 -0.000001 -0.000002 -8.676844 -5.659690 54.892274 -4.714169 8.864026 96.803766 0.000001 -0.000004 0.000001 -12.562968 0.077597 69.885293 -3.484595 14.093091 79.770544 -0.000001 0.000001 0.000000 -0.000002 -0.000004 -0.000000 0.000000 0.000001 -0.000000 0.000000 0.000001 -0.000000 0.000000 0.000001 -0.000000 0.000000 0.000001 -0.000000 0.000000 0.000001 -0.000000 0.000000 0.000001 0.000001 0.000000 0.000001 -0.000000 0.000000 0.000001 -0.000000 0.000000 0.000001 0.000001 0.000000 -0.000001 -0.000001 0.000000 -0.000001 -0.000001 0.000001 0.000001 -0.000001 
-5.602314 73.857117 98.955872 10.202937 124.354495 3.532754 -0.000000 -0.000001 -0.000001 -24.211054 -4.478199 -4.489822 62.120495 -9.081401 -2.644221 -13.838086 25.144868 -5.714276 -0.000000 0.000001 0.000000 -0.000000 0.000001 -0.000001 0.000003 0.000000 0.000000 -24.344894 -0.636441 -19.884346 61.808895 -3.228462 1.973604 -31.743260 -2.335720 5.110141 -0.000000 -0.000000 -0.000000 -0.000000 -0.000000 -0.000000 -0.000001 -0.000000 0.000000 2.466718 -1.094319 0.010680 4.948034 -2.241002 0.514389 4.948034 -2.241013 0.514392 18.495941 6.631135 -6.242629 3.768421 -34.332653 15.157744 -0.000000 -0.000000 -0.000000 -0.000000 -0.000000 -0.000000 -0.000000 -0.000000 -0.000000 -9.143006 4.626102 -7.867450 -25.056069 -5.397301 -51.189870 -94.492095 -85.071980 -78.851044 -120.200456 -12.531614 -17.277894 3.592080 4.185668 -5.133825 1.252893 4.302587 1.889366 0.000003 -0.000002 0.000001 7.554899 5.560409 -33.410379 -14.917826 -6.767400 -80.641913 0.000000 -0.000000 -0.000002 -0.349206 -1.566793 -62.979228 -6.177646 -6.585459 -60.286166 0.000001 0.000003 0.000001 -5.286440 4.624254 -73.484708 0.757943 -3.521248 -58.282858 0.000001 0.000001 -0.000002 -16.248808 1.424902 -86.150590 2.608796 -7.577998 -55.784713 0.000001 0.000001 -0.000002 -0.000001 0.000001 0.000000 12.840079 16.691116 -10.330226 -20.798010 68.551761 39.831884 60.066343 90.705315 -65.522456 8.259789 9.880104 -17.128455 15.407449 -4.518729 17.010994 11.550393 4.015409 -20.411424 -0.000001 0.000003 -0.000002 1.857048 -0.976107 4.781777 -1.775902 -0.095298 22.317040 -0.000001 0.000002 0.000005 3.631176 5.779695 48.858805 -9.397605 -0.919669 110.759789 -0.000003 0.000000 -0.000004 -8.676843 -5.659694 54.892274 -4.714173 8.864030 96.803766 -0.000001 -0.000000 0.000004 -12.562968 0.077601 69.885293 -3.484588 14.093086 79.770537 -0.000002 0.000001 0.000000 -0.000004 0.000000 -0.000002 0.000001 0.000001 -0.000000 0.000001 0.000001 -0.000000 0.000001 0.000001 -0.000000 0.000001 0.000001 -0.000000 0.000001 0.000001 -0.000000 0.000001 0.000001 -0.000000 0.000001 0.000001 -0.000000 0.000001 0.000001 -0.000000 0.000001 0.000001 -0.000000 0.000000 -0.000001 -0.000000 0.000000 -0.000001 -0.000000 -0.000000 -0.000001 -0.000001 
-6.151052 73.815231 101.485191 8.488895 125.160266 5.057944 0.000000 0.000003 -0.000000 -23.125907 -4.458256 -3.521492 60.451361 -8.939340 -2.580439 -14.996252 27.888748 -2.135135 0.000000 0.000000 0.000001 0.000000 0.000000 0.000001 -0.000003 -0.000001 0.000001 -27.761620 -2.119438 -18.837112 62.527841 -3.108795 1.989124 -30.745253 -1.830069 2.816408 -0.000000 0.000002 -0.000000 -0.000000 0.000002 -0.000000 0.000003 -0.000000 -0.000000 2.375478 -1.211724 0.103278 4.772947 -2.458322 0.822194 4.772946 -2.458310 0.822190 17.563229 6.189678 -4.345275 2.999433 -35.105984 16.359927 -0.000000 -0.000000 -0.000000 -0.000000 -0.000000 -0.000000 -0.000000 -0.000000 -0.000000 -9.214461 2.880432 -6.344985 -22.318388 -5.492801 -49.898876 -150.031088 -83.533009 -133.840781 -118.417886 -15.896864 -14.676562 3.592081 4.185671 -5.133825 1.252889 4.302587 1.889375 0.000000 -0.000002 0.000000 7.554901 5.560409 -33.410376 -14.917826 -6.767400 -80.641913 -0.000001 -0.000003 -0.000004 -0.349201 -1.566793 -62.979235 -6.177647 -6.585458 -60.286166 0.000000 -0.000000 0.000000 -5.286437 4.624257 -73.484701 0.757942 -3.521248 -58.282851 0.000000 -0.000002 0.000001 -16.248808 1.424906 -86.150583 2.608796 -7.578001 -55.784713 0.000001 0.000000 0.000002 -0.000000 0.000001 0.000003 12.533318 16.026861 -8.735283 -17.185932 67.115392 37.690340 16.075035 92.801890 -21.573566 9.107154 11.956652 -18.498183 15.407450 -4.518731 17.011001 11.550395 4.015404 -20.411430 0.000001 0.000005 0.000002 1.857054 -0.976113 4.781782 -1.775902 -0.095298 22.317037 0.000002 -0.000000 0.000003 3.631176 5.779693 48.858802 -9.397608 -0.919674 110.759782 -0.000001 0.000001 -0.000002 -8.676838 -5.659695 54.892277 -4.714173 8.864029 96.803773 -0.000001 0.000001 0.000006 -12.562966 0.077595 69.885293 -3.484593 14.093087 79.770544 0.000001 -0.000001 -0.000002 0.000002 0.000000 0.000000 0.000000 -0.000001 -0.000000 0.000000 -0.000001 -0.000000 0.000000 -0.000001 -0.000000 0.000000 -0.000001 -0.000000 0.000000 -0.000001 -0.000001 0.000000 -0.000002 -0.000000 0.000000 -0.000001 -0.000000 0.000000 -0.000001 -0.000001 0.000000 -0.000002 -0.000000 0.000000 0.000001 -0.000000 0.000000 0.000001 -0.000000 0.000000 0.000003 -0.000000 
-6.790855 73.934715 103.854630 6.302870 126.661022 6.771082 -0.000000 0.000000 -0.000000 -22.279551 -5.047484 -2.563132 56.634925 -8.409126 -2.428798 -16.185451 30.544664 1.692820 -0.000000 0.000003 -0.000000 -0.000000 0.000003 0.000000 -0.000000 0.000001 0.000000 -31.258333 -5.030984 -18.637274 62.273123 -3.082807 1.973921 -29.290385 -0.462354 0.707475 0.000000 0.000000 0.000000 0.000000 0.000000 0.000000 -0.000000 0.000001 -0.000000 2.324073 -1.284077 0.135384 4.675991 -2.578228 1.004187 4.675986 -2.578253 1.004188 16.349928 5.571419 -1.901886 2.401014 -37.086763 18.686481 -0.000001 -0.000000 0.000001 -0.000001 -0.000000 0.000001 -0.000001 -0.000000 0.000001 -8.985530 3.412022 -5.045295 -20.940429 -11.242702 -48.930379 -158.505167 -81.911290 -141.533063 -116.563708 -19.139034 -13.431640 3.592078 4.185671 -5.133828 1.252895 4.302588 1.889379 0.000003 -0.000000 0.000000 7.554900 5.560413 -33.410379 -14.917823 -6.767401 -80.641919 0.000000 0.000001 -0.000003 -0.349204 -1.566792 -62.979235 -6.177640 -6.585459 -60.286166 0.000002 0.000001 0.000004 -5.286439 4.624257 -73.484708 0.757942 -3.521247 -58.282851 -0.000002 -0.000000 -0.000000 -16.248813 1.424905 -86.150590 2.608798 -7.577999 -55.784713 0.000002 0.000001 0.000002 -0.000001 -0.000003 0.000004 12.285341 14.289240 -7.456062 -14.805933 65.542181 36.795561 10.564546 94.884250 -16.278123 10.339749 14.005594 -20.274646 15.407452 -4.518727 17.010993 11.550396 4.015406 -20.411426 -0.000001 0.000002 -0.000001 1.857051 -0.976108 4.781777 -1.775901 -0.095299 22.317044 -0.000001 -0.000004 0.000005 3.631176 5.779697 48.858802 -9.397606 -0.919671 110.759782 -0.000003 -0.000001 0.000001 -8.676843 -5.659692 54.892274 -4.714177 8.864029 96.803773 -0.000003 -0.000003 0.000002 -12.562964 0.077604 69.885287 -3.484590 14.093089 79.770544 -0.000000 0.000003 -0.000001 -0.000003 0.000000 -0.000000 0.000002 -0.000001 -0.000000 0.000002 -0.000001 -0.000000 0.000002 -0.000001 -0.000000 0.000002 -0.000001 -0.000000 0.000002 -0.000001 -0.000001 0.000001 0.000000 0.000000 0.000002 -0.000001 -0.000000 0.000002 -0.000001 -0.000001 0.000001 0.000000 0.000000 0.000000 0.000001 0.000000 0.000000 0.000001 0.000000 -0.000000 0.000000 -0.000000 
